# File created by Blade
# Date/Time:  Wed Jan 21 16:02:01 2015
# Frame Rate: 120.000 fps
#------------------------------------------------------
:FULLY-SPECIFIED
:DEGREES
1148
root 18.636293 32.647756 -17.454870 -171.275011 6.034462 -176.767714
Spine -18.524653 2.623607 8.337732
Head 11.753452 -5.426864 -10.020351
LeftShoulder -10.704656 -28.606508 -5.982435
LeftArm -39.387960 -9.834374 -53.199814
LeftForeArm 3.581706 0.000000 8.913322
LeftHand -1.987097 -0.000000 2.871174
LeftHandThumb1 -26.253704 0.000000 33.147579
RightShoulder -10.090107 17.452658 -44.789679
RightArm 44.815170 49.226273 -8.386872
RightForeArm -40.804574 0.000000 11.639949
RightHand -1.496475 -0.000000 -19.684001
RightHandThumb1 -24.326973 -0.000000 -32.862282
LeftUpLeg 11.015797 3.788658 -18.058474
LeftLeg -1.303524 -0.000000 0.000000
LeftFoot -34.855056 18.206493 -16.346961
LeftToeBase 21.658658 -0.000000 -0.000000
RightUpLeg -19.947838 13.535776 21.628269
RightLeg -1.693464 -0.000000 0.000000
RightFoot -1.279873 -32.987965 -3.157847
RightToeBase 20.576402 -0.000000 -0.000000
1149
root 18.604701 32.648310 -17.442474 -171.263986 6.061443 -176.735641
Spine -18.423760 2.684631 8.565047
Head 11.613403 -5.288146 -10.104868
LeftShoulder -10.681918 -28.562689 -6.040706
LeftArm -39.330920 -9.944475 -53.277358
LeftForeArm 3.751704 -0.000000 8.867922
LeftHand -2.006913 -0.000000 2.708537
LeftHandThumb1 -26.253704 0.000000 33.147579
RightShoulder -10.079032 17.474574 -44.743342
RightArm 44.799412 49.325069 -8.406511
RightForeArm -40.899890 -0.000000 11.897599
RightHand -1.634772 0.000000 -19.841757
RightHandThumb1 -24.326973 -0.000000 -32.862282
LeftUpLeg 10.966691 3.872422 -18.057026
LeftLeg -1.271331 -0.000000 0.000000
LeftFoot -34.942122 18.019137 -16.454241
LeftToeBase 22.088344 -0.000000 -0.000000
RightUpLeg -19.989690 13.549308 21.611380
RightLeg -1.671398 -0.000000 0.000000
RightFoot -1.256310 -33.008575 -3.209071
RightToeBase 20.569473 -0.000000 -0.000000
1150
root 18.572050 32.648162 -17.429662 -171.249220 6.084722 -176.697208
Spine -18.319945 2.731537 8.818747
Head 11.461463 -5.121812 -10.216295
LeftShoulder -10.710833 -28.576659 -6.061517
LeftArm -39.299133 -9.969581 -53.415704
LeftForeArm 3.773578 -0.000000 8.823811
LeftHand -2.034762 -0.000000 2.987751
LeftHandThumb1 -26.253704 0.000000 33.147579
RightShoulder -10.075767 17.545418 -44.757065
RightArm 44.769680 49.337317 -8.389494
RightForeArm -40.865323 0.000000 12.184666
RightHand -1.762325 0.000000 -20.101537
RightHandThumb1 -24.326973 -0.000000 -32.862282
LeftUpLeg 10.931615 3.906803 -18.063352
LeftLeg -1.277432 -0.000000 0.000000
LeftFoot -35.009768 17.908659 -16.571651
LeftToeBase 22.307872 -0.000000 -0.000000
RightUpLeg -20.023441 13.590085 21.590596
RightLeg -1.676270 -0.000000 0.000000
RightFoot -1.233367 -33.074157 -3.261914
RightToeBase 20.492998 -0.000000 -0.000000
1151
root 18.542730 32.648307 -17.414243 -171.241267 6.088926 -176.678039
Spine -18.208643 2.748447 9.023292
Head 11.312580 -4.958574 -10.271332
LeftShoulder -10.712214 -28.566532 -6.063867
LeftArm -39.269278 -9.968388 -53.593653
LeftForeArm 3.622022 -0.000000 8.828049
LeftHand -2.001648 -0.000000 2.889315
LeftHandThumb1 -26.253704 0.000000 33.147579
RightShoulder -10.061399 17.562480 -44.679166
RightArm 44.796938 49.456726 -8.366107
RightForeArm -41.008557 -0.000000 12.393236
RightHand -1.766451 -0.000000 -20.220931
RightHandThumb1 -24.326973 -0.000000 -32.862282
LeftUpLeg 10.898094 3.871094 -18.081953
LeftLeg -1.263052 -0.000000 0.000000
LeftFoot -35.182097 17.827725 -16.762083
LeftToeBase 23.283198 -0.000000 -0.000000
RightUpLeg -20.064092 13.617176 21.556532
RightLeg -1.679868 -0.000000 0.000000
RightFoot -1.219452 -33.145490 -3.291334
RightToeBase 20.423838 -0.000000 -0.000000
1152
root 18.513478 32.649109 -17.400632 -171.224469 6.086814 -176.654530
Spine -18.115241 2.771205 9.231920
Head 11.156551 -4.797368 -10.323575
LeftShoulder -10.706593 -28.534318 -6.058856
LeftArm -39.203223 -9.941148 -53.804707
LeftForeArm 3.607147 -0.000000 8.779519
LeftHand -2.061172 -0.000000 2.804166
LeftHandThumb1 -26.253704 0.000000 33.147579
RightShoulder -10.045050 17.550134 -44.621101
RightArm 44.732426 49.532124 -8.415813
RightForeArm -41.014326 -0.000000 12.624143
RightHand -1.829783 -0.000000 -20.489336
RightHandThumb1 -24.326973 -0.000000 -32.862282
LeftUpLeg 10.854834 3.879671 -18.087346
LeftLeg -1.243673 -0.000000 0.000000
LeftFoot -35.206679 17.700052 -16.845533
LeftToeBase 22.980529 -0.000000 -0.000000
RightUpLeg -20.101453 13.636324 21.515397
RightLeg -1.709788 -0.000000 0.000000
RightFoot -1.286493 -33.182255 -3.121784
RightToeBase 20.345050 -0.000000 -0.000000
1153
root 18.484947 32.650447 -17.386235 -171.205959 6.074428 -176.630876
Spine -18.023044 2.785644 9.439790
Head 11.010517 -4.675864 -10.392654
LeftShoulder -10.702371 -28.517831 -6.059410
LeftArm -39.125653 -9.906955 -54.004902
LeftForeArm 3.442244 -0.000000 8.683817
LeftHand -2.009954 -0.000000 2.874266
LeftHandThumb1 -26.253704 0.000000 33.147579
RightShoulder -10.096177 17.767986 -44.626896
RightArm 44.878152 49.388921 -8.267378
RightForeArm -41.113432 -0.000000 12.800966
RightHand -1.897784 0.000000 -20.707581
RightHandThumb1 -24.326973 -0.000000 -32.862282
LeftUpLeg 10.813534 3.877514 -18.088895
LeftLeg -1.226934 -0.000000 0.000000
LeftFoot -35.326253 17.556011 -16.995552
LeftToeBase 23.917082 -0.000000 -0.000000
RightUpLeg -20.145279 13.665528 21.483519
RightLeg -1.726207 -0.000000 0.000000
RightFoot -1.323940 -33.285777 -3.121432
RightToeBase 20.421420 -0.000000 -0.000000
1154
root 18.457415 32.651932 -17.370815 -171.180555 6.063095 -176.609015
Spine -17.938732 2.801318 9.636005
Head 10.878082 -4.526215 -10.421141
LeftShoulder -10.681957 -28.496220 -6.049811
LeftArm -39.090585 -9.973570 -54.121609
LeftForeArm 3.555814 -0.000000 8.620298
LeftHand -2.032075 -0.000000 3.074320
LeftHandThumb1 -26.253704 0.000000 33.147579
RightShoulder -10.073523 17.639736 -44.540937
RightArm 44.783348 49.535213 -8.372582
RightForeArm -41.007758 -0.000000 12.947706
RightHand -1.952310 0.000000 -21.066768
RightHandThumb1 -24.326973 -0.000000 -32.862282
LeftUpLeg 10.765414 3.804662 -18.110169
LeftLeg -1.221007 -0.000000 0.000000
LeftFoot -35.430287 17.499478 -17.150084
LeftToeBase 24.324333 -0.000000 -0.000000
RightUpLeg -20.200453 13.677900 21.459144
RightLeg -1.734236 -0.000000 0.000000
RightFoot -1.345818 -33.399008 -3.113187
RightToeBase 20.434331 -0.000000 -0.000000
1155
root 18.430578 32.653012 -17.354727 -171.162670 6.000859 -176.575796
Spine -17.854127 2.767131 9.855635
Head 10.752608 -4.361670 -10.471076
LeftShoulder -10.643179 -28.436971 -6.063724
LeftArm -39.026904 -10.031379 -54.244272
LeftForeArm 3.627552 -0.000000 8.559002
LeftHand -1.985991 -0.000000 2.870152
LeftHandThumb1 -26.253704 0.000000 33.147579
RightShoulder -10.034784 17.607166 -44.469133
RightArm 44.727137 49.624937 -8.409969
RightForeArm -41.090526 -0.000000 13.123090
RightHand -1.923577 -0.000000 -21.076646
RightHandThumb1 -24.326973 -0.000000 -32.862282
LeftUpLeg 10.731951 3.728332 -18.115543
LeftLeg -1.234937 -0.000000 0.000000
LeftFoot -35.536750 17.535432 -17.240338
LeftToeBase 24.615785 -0.000000 -0.000000
RightUpLeg -20.254128 13.631797 21.452523
RightLeg -1.754231 -0.000000 0.000000
RightFoot -1.355481 -33.468683 -3.091167
RightToeBase 20.347930 -0.000000 -0.000000
1156
root 18.404659 32.654712 -17.339466 -171.150361 5.972238 -176.566383
Spine -17.774929 2.773893 10.013778
Head 10.671725 -4.244605 -10.490075
LeftShoulder -10.586912 -28.406148 -6.045580
LeftArm -38.968282 -9.985706 -54.450946
LeftForeArm 3.386399 -0.000000 8.477287
LeftHand -1.967616 -0.000000 2.910887
LeftHandThumb1 -26.253704 0.000000 33.147579
RightShoulder -10.013898 17.703389 -44.424444
RightArm 44.783494 49.586997 -8.316105
RightForeArm -41.234966 -0.000000 13.236968
RightHand -1.897293 -0.000000 -21.205766
RightHandThumb1 -24.326973 -0.000000 -32.862282
LeftUpLeg 10.700763 3.764890 -18.113071
LeftLeg -1.228342 -0.000000 0.000000
LeftFoot -35.564770 17.354644 -17.307396
LeftToeBase 24.950141 -0.000000 -0.000000
RightUpLeg -20.300112 13.606363 21.421389
RightLeg -1.760208 -0.000000 0.000000
RightFoot -1.383254 -33.496857 -3.068535
RightToeBase 20.199550 -0.000000 -0.000000
1157
root 18.379180 32.656294 -17.321407 -171.127885 5.923050 -176.549236
Spine -17.702999 2.773071 10.186990
Head 10.610443 -4.116066 -10.506693
LeftShoulder -10.484504 -28.438471 -6.052401
LeftArm -39.024288 -9.989108 -54.539143
LeftForeArm 3.567139 -0.000000 8.459733
LeftHand -2.022834 -0.000000 2.900747
LeftHandThumb1 -26.253704 0.000000 33.147579
RightShoulder -10.013474 17.660728 -44.358733
RightArm 44.738004 49.612137 -8.364949
RightForeArm -41.250902 -0.000000 13.345373
RightHand -1.893111 -0.000000 -21.297523
RightHandThumb1 -24.326973 -0.000000 -32.862282
LeftUpLeg 10.654636 3.748488 -18.121044
LeftLeg -1.235533 -0.000000 0.000000
LeftFoot -35.570116 17.353622 -17.338505
LeftToeBase 25.002131 -0.000000 -0.000000
RightUpLeg -20.372546 13.571676 21.396498
RightLeg -1.754947 -0.000000 0.000000
RightFoot -1.383700 -33.530757 -3.056330
RightToeBase 20.091844 -0.000000 -0.000000
1158
root 18.354930 32.657811 -17.303311 -171.118061 5.874951 -176.547632
Spine -17.615874 2.780807 10.323990
Head 10.556225 -4.019441 -10.512550
LeftShoulder -10.393094 -28.404716 -6.081749
LeftArm -38.938867 -10.037375 -54.598734
LeftForeArm 3.633550 -0.000000 8.329884
LeftHand -1.910978 0.000000 2.717394
LeftHandThumb1 -26.253704 0.000000 33.147579
RightShoulder -9.995709 17.594249 -44.302301
RightArm 44.699102 49.692350 -8.351428
RightForeArm -41.355093 -0.000000 13.461603
RightHand -1.976987 -0.000000 -21.395772
RightHandThumb1 -24.326973 -0.000000 -32.862282
LeftUpLeg 10.611112 3.737595 -18.134660
LeftLeg -1.207058 -0.000000 0.000000
LeftFoot -35.651021 17.236283 -17.424883
LeftToeBase 25.321777 -0.000000 -0.000000
RightUpLeg -20.434681 13.540899 21.357024
RightLeg -1.749667 -0.000000 0.000000
RightFoot -1.385826 -33.585737 -3.055132
RightToeBase 19.982734 -0.000000 -0.000000
1159
root 18.332557 32.658984 -17.286477 -171.116237 5.822702 -176.540209
Spine -17.528045 2.782595 10.462181
Head 10.520675 -3.943073 -10.527346
LeftShoulder -10.324825 -28.367564 -6.095075
LeftArm -38.843114 -9.979825 -54.750840
LeftForeArm 3.521000 -0.000000 8.262321
LeftHand -1.985626 -0.000000 2.752050
LeftHandThumb1 -26.253704 0.000000 33.147579
RightShoulder -9.975311 17.619356 -44.261257
RightArm 44.683759 49.681407 -8.329126
RightForeArm -41.399910 -0.000000 13.520476
RightHand -1.888718 -0.000000 -21.389342
RightHandThumb1 -24.326973 -0.000000 -32.862282
LeftUpLeg 10.582564 3.718185 -18.146625
LeftLeg -1.195949 -0.000000 0.000000
LeftFoot -35.684512 17.191229 -17.491926
LeftToeBase 25.295812 -0.000000 -0.000000
RightUpLeg -20.479469 13.508648 21.327976
RightLeg -1.763076 -0.000000 0.000000
RightFoot -1.353679 -33.657660 -3.059915
RightToeBase 19.746694 -0.000000 -0.000000
1160
root 18.310729 32.660932 -17.268517 -171.105273 5.767572 -176.528164
Spine -17.449896 2.788563 10.601020
Head 10.491533 -3.848023 -10.518704
LeftShoulder -10.248178 -28.374632 -6.097614
LeftArm -38.825379 -9.923224 -54.877197
LeftForeArm 3.600075 -0.000000 8.247398
LeftHand -2.006783 -0.000000 2.885095
LeftHandThumb1 -26.253704 0.000000 33.147579
RightShoulder -9.968851 17.687287 -44.241181
RightArm 44.677241 49.609465 -8.259411
RightForeArm -41.504959 0.000000 13.654136
RightHand -1.985850 -0.000000 -21.295621
RightHandThumb1 -24.326973 -0.000000 -32.862282
LeftUpLeg 10.540878 3.725782 -18.150185
LeftLeg -1.181654 -0.000000 0.000000
LeftFoot -35.704658 17.144554 -17.542744
LeftToeBase 25.395984 -0.000000 -0.000000
RightUpLeg -20.533078 13.495351 21.293684
RightLeg -1.775014 -0.000000 0.000000
RightFoot -1.336611 -33.713613 -3.053450
RightToeBase 19.611009 -0.000000 -0.000000
